<?xml version="1.0" encoding="UTF-8" standalone="no"?>
<svg
   xmlns:dc="http://purl.org/dc/elements/1.1/"
   xmlns:cc="http://creativecommons.org/ns#"
   xmlns:rdf="http://www.w3.org/1999/02/22-rdf-syntax-ns#"
   xmlns:svg="http://www.w3.org/2000/svg"
   xmlns="http://www.w3.org/2000/svg"
   xmlns:xlink="http://www.w3.org/1999/xlink"
   xmlns:sodipodi="http://sodipodi.sourceforge.net/DTD/sodipodi-0.dtd"
   xmlns:inkscape="http://www.inkscape.org/namespaces/inkscape"
   width="800"
   height="800"
   viewBox="0 0 800 799.99997"
   version="1.1"
   id="svg172"
   sodipodi:docname="logo_dark_text.svg"
   inkscape:version="0.92.4 (5da689c313, 2019-01-14)">
  <metadata
     id="metadata176">
    <rdf:RDF>
      <cc:Work
         rdf:about="">
        <dc:format>image/svg+xml</dc:format>
        <dc:type
           rdf:resource="http://purl.org/dc/dcmitype/StillImage" />
        <dc:title></dc:title>
      </cc:Work>
    </rdf:RDF>
  </metadata>
  <sodipodi:namedview
     pagecolor="#ffffff"
     bordercolor="#666666"
     borderopacity="1"
     objecttolerance="10"
     gridtolerance="10"
     guidetolerance="10"
     inkscape:pageopacity="0"
     inkscape:pageshadow="2"
     inkscape:window-width="1366"
     inkscape:window-height="705"
     id="namedview174"
     showgrid="false"
     inkscape:zoom="0.376549"
     inkscape:cx="381.0925"
     inkscape:cy="158.42101"
     inkscape:window-x="-8"
     inkscape:window-y="-8"
     inkscape:window-maximized="1"
     inkscape:current-layer="svg172" />
  <defs
     id="defs158">
    <linearGradient
       id="linear-gradient"
       y1="0.5"
       x2="1"
       y2="0.5"
       gradientUnits="objectBoundingBox">
      <stop
         offset="0"
         stop-color="#ff7955"
         id="stop153" />
      <stop
         offset="1"
         stop-color="#f04e3e"
         id="stop155" />
    </linearGradient>
    <linearGradient
       inkscape:collect="always"
       xlink:href="#linear-gradient"
       id="linearGradient178"
       gradientUnits="userSpaceOnUse"
       y1="158.42101"
       x2="316.84201"
       y2="158.42101"
       x1="0" />
    <linearGradient
       inkscape:collect="always"
       xlink:href="#linear-gradient"
       id="linearGradient180"
       gradientUnits="userSpaceOnUse"
       y1="2251.252"
       x2="2272.6221"
       y2="2251.252"
       gradientTransform="scale(0.86582548,1.1549672)"
       x1="2185.1008" />
    <linearGradient
       inkscape:collect="always"
       xlink:href="#linear-gradient"
       id="linearGradient182"
       gradientUnits="userSpaceOnUse"
       y1="2039.4159"
       x2="2649.1597"
       y2="2039.4159"
       gradientTransform="scale(0.74662392,1.3393624)"
       x1="2573.688" />
  </defs>
  <g
     id="Group_72"
     data-name="Group 72"
     transform="matrix(1.0496112,0,0,1.0496112,1254.2413,1113.6892)">
    <rect
       id="Rectangle_62"
       data-name="Rectangle 62"
       width="316.84201"
       height="316.84201"
       rx="37.423"
       transform="translate(-1194.958,-806.251)"
       x="0"
       y="0"
       style="fill:url(#linearGradient178)" />
    <circle
       id="Ellipse_12"
       data-name="Ellipse 12"
       cx="122.269"
       cy="122.269"
       r="122.269"
       transform="translate(-1158.806,-770.098)"
       style="fill:#333333" />
    <path
       id="Path_28"
       data-name="Path 28"
       d="m 1935.682,2650.664 h -11.754 v -90.644 h -32.012 v -10.44 h 75.778 v 10.44 h -32.012 z"
       transform="translate(-2743.613,-3306.751)"
       inkscape:connector-curvature="0"
       style="fill:url(#linearGradient180)" />
    <path
       id="Path_29"
       data-name="Path 29"
       d="m 2043.058,2650.664 -13.9,-44.457 q -1.314,-4.08 -4.909,-18.53 h -0.553 q -2.766,12.1 -4.84,18.668 l -14.313,44.319 h -13.274 l -20.674,-75.778 h 12.031 q 7.328,28.556 11.167,43.489 3.839,14.933 4.39,20.12 h 0.553 q 0.76,-3.941 2.454,-10.2 1.694,-6.259 2.938,-9.922 l 13.9,-43.489 h 12.445 l 13.552,43.489 a 147.042,147.042 0 0 1 5.255,19.982 h 0.553 a 72.556,72.556 0 0 1 1.487,-7.674 q 1.209,-5.186 14.415,-55.8 h 11.893 l -20.95,75.778 z"
       transform="translate(-2743.613,-3306.751)"
       inkscape:connector-curvature="0"
       style="fill:#353434" />
    <path
       id="Path_30"
       data-name="Path 30"
       d="m 2123.33,2652.047 q -16.8,0 -26.516,-10.233 -9.716,-10.233 -9.714,-28.414 0,-18.321 9.023,-29.108 9.023,-10.787 24.234,-10.786 14.243,0 22.54,9.368 8.297,9.368 8.3,24.719 v 7.26 h -52.2 q 0.344,13.344 6.741,20.257 6.397,6.913 18.011,6.914 a 61.04,61.04 0 0 0 24.2,-5.116 v 10.233 a 60.68,60.68 0 0 1 -11.512,3.768 64.663,64.663 0 0 1 -13.107,1.138 z m -3.112,-68.934 q -9.126,0 -14.553,5.947 -5.427,5.947 -6.4,16.456 h 39.617 q 0,-10.856 -4.84,-16.629 -4.84,-5.773 -13.824,-5.774 z"
       transform="translate(-2743.613,-3306.751)"
       inkscape:connector-curvature="0"
       style="fill:#353434" />
    <path
       id="Path_31"
       data-name="Path 31"
       d="m 2202.773,2652.047 q -16.8,0 -26.516,-10.233 -9.716,-10.233 -9.713,-28.417 0,-18.321 9.022,-29.108 9.022,-10.787 24.234,-10.789 14.244,0 22.54,9.368 8.296,9.368 8.3,24.719 v 7.26 h -52.2 q 0.345,13.344 6.741,20.257 6.396,6.913 18.011,6.914 a 61.035,61.035 0 0 0 24.2,-5.116 v 10.233 a 60.648,60.648 0 0 1 -11.511,3.768 64.683,64.683 0 0 1 -13.108,1.144 z m -3.111,-68.934 q -9.126,0 -14.554,5.947 -5.428,5.947 -6.4,16.456 h 39.618 q 0,-10.856 -4.84,-16.629 -4.84,-5.773 -13.824,-5.774 z"
       transform="translate(-2743.613,-3306.751)"
       inkscape:connector-curvature="0"
       style="fill:#353434" />
    <path
       id="Path_32"
       data-name="Path 32"
       d="m 2261.543,2611.876 a 134.975,134.975 0 0 1 9.057,-11.063 l 24.476,-25.927 h 13.624 l -30.7,32.289 32.842,43.489 h -13.9 l -26.758,-35.814 -8.642,7.466 v 28.348 H 2250.2 v -107.583 h 11.339 v 57.041 q 0,3.8 -0.553,11.754 z"
       transform="translate(-2743.613,-3306.751)"
       inkscape:connector-curvature="0"
       style="fill:#353434" />
    <path
       id="Path_34"
       data-name="Path 34"
       d="m 1921.577,2782.059 v -101.084 h 11.754 v 90.436 h 44.595 v 10.648 z"
       transform="translate(-2743.613,-3306.751)"
       inkscape:connector-curvature="0"
       style="fill:url(#linearGradient182)" />
    <path
       id="Path_35"
       data-name="Path 35"
       d="m 2039.946,2782.059 -2.281,-10.787 h -0.554 q -5.668,7.122 -11.3,9.646 a 34.46,34.46 0 0 1 -14.069,2.523 q -11.271,0 -17.666,-5.807 -6.395,-5.807 -6.4,-16.525 0,-22.953 36.714,-24.061 l 12.861,-0.415 v -4.7 q 0,-8.92 -3.837,-13.172 -3.837,-4.252 -12.274,-4.252 -9.473,0 -21.433,5.807 l -3.526,-8.78 a 53.926,53.926 0 0 1 12.273,-4.77 53.12,53.12 0 0 1 13.378,-1.729 q 13.551,0 20.086,6.015 6.535,6.015 6.534,19.291 v 51.717 z m -25.928,-8.09 q 10.718,0 16.836,-5.877 6.118,-5.877 6.119,-16.455 v -6.845 l -11.477,0.483 q -13.69,0.486 -19.74,4.253 -6.05,3.767 -6.05,11.719 0,6.222 3.768,9.473 3.768,3.251 10.544,3.249 z"
       transform="translate(-2743.613,-3306.751)"
       inkscape:connector-curvature="0"
       style="fill:#353434" />
    <path
       id="Path_36"
       data-name="Path 36"
       d="m 2107.358,2705.036 q 14.934,0 23.2,10.2 8.266,10.2 8.263,28.867 0,18.667 -8.331,29 -8.331,10.333 -23.128,10.337 a 32.8,32.8 0 0 1 -13.517,-2.731 25.408,25.408 0 0 1 -10.267,-8.4 h -0.83 l -2.42,9.749 h -8.228 v -107.582 h 11.478 v 26.134 q 0,8.782 -0.554,15.765 h 0.554 q 8.015,-11.34 23.78,-11.339 z m -1.659,9.61 q -11.755,0 -16.94,6.742 -5.185,6.742 -5.185,22.713 0,15.97 5.323,22.85 5.323,6.88 17.078,6.88 10.578,0 15.764,-7.709 5.186,-7.709 5.185,-22.16 0,-14.794 -5.185,-22.056 -5.185,-7.262 -16.039,-7.26 z"
       transform="translate(-2743.613,-3306.751)"
       inkscape:connector-curvature="0"
       style="fill:#353434" />
    <path
       id="Path_37"
       data-name="Path 37"
       d="m 2207.751,2761.386 q 0,10.577 -7.883,16.317 -7.883,5.74 -22.125,5.738 -15.073,0 -23.508,-4.77 v -10.648 a 56.775,56.775 0 0 0 11.72,4.356 48.935,48.935 0 0 0 12.064,1.59 q 8.988,0 13.828,-2.869 a 9.88,9.88 0 0 0 1,-16.318 q -3.837,-3.144 -14.968,-7.432 -10.579,-3.941 -15.039,-6.879 a 20.55,20.55 0 0 1 -6.637,-6.672 17.4,17.4 0 0 1 -2.178,-8.92 17,17 0 0 1 7.536,-14.623 q 7.536,-5.357 20.673,-5.359 a 60.483,60.483 0 0 1 23.923,4.979 l -4.079,9.334 q -11.409,-4.7 -20.673,-4.7 -8.16,0 -12.308,2.558 a 7.912,7.912 0 0 0 -4.148,7.052 8.586,8.586 0 0 0 1.556,5.187 15.358,15.358 0 0 0 5.012,4.079 111.967,111.967 0 0 0 13.276,5.6 q 13.482,4.91 18.218,9.887 a 17.438,17.438 0 0 1 4.74,12.513 z"
       transform="translate(-2743.613,-3306.751)"
       inkscape:connector-curvature="0"
       style="fill:#353434" />
  </g>
</svg>
